PathFileType	4	(X/Y/Z)	c:/Users/goper/Files/vsCode/490R/osim_files/A01/A01_Slow_02.trc
DataRate	CameraRate	NumFrames	NumMarkers	Units                	OrigDataRate	OrigDataStartFrame	OrigNumFrames
120.00	120.00	10	36	mm	120.0	1756	2341
                Frame#	Time	Mobility_markerset:LPSIS			Mobility_markerset:LASIS			Mobility_markerset:LTH1			Mobility_markerset:LTH2			Mobility_markerset:LTH3			Mobility_markerset:LTH4			Mobility_markerset:LLFE			Mobility_markerset:LMFE			Mobility_markerset:LSH1			Mobility_markerset:LSH2			Mobility_markerset:LSH3			Mobility_markerset:LSH4			Mobility_markerset:LLMAL			Mobility_markerset:LMMAL			Mobility_markerset:LCAL			Mobility_markerset:LMTP5			Mobility_markerset:LTOE			Mobility_markerset:LMTP1			Mobility_markerset:RPSIS			Mobility_markerset:RASIS			Mobility_markerset:RTH1			Mobility_markerset:RTH2			Mobility_markerset:RTH3			Mobility_markerset:RTH4			Mobility_markerset:RLFE			Mobility_markerset:RMFE			Mobility_markerset:RSH1			Mobility_markerset:RSH2			Mobility_markerset:RSH3			Mobility_markerset:RSH4			Mobility_markerset:RLMAL			Mobility_markerset:RMMAL			Mobility_markerset:RCAL			Mobility_markerset:RMTP1			Mobility_markerset:RTOE			Mobility_markerset:RMTP5		
		X1	Y1	Z1	X2	Y2	Z2	X3	Y3	Z3	X4	Y4	Z4	X5	Y5	Z5	X6	Y6	Z6	X7	Y7	Z7	X8	Y8	Z8	X9	Y9	Z9	X10	Y10	Z10	X11	Y11	Z11	X12	Y12	Z12	X13	Y13	Z13	X14	Y14	Z14	X15	Y15	Z15	X16	Y16	Z16	X17	Y17	Z17	X18	Y18	Z18	X19	Y19	Z19	X20	Y20	Z20	X21	Y21	Z21	X22	Y22	Z22	X23	Y23	Z23	X24	Y24	Z24	X25	Y25	Z25	X26	Y26	Z26	X27	Y27	Z27	X28	Y28	Z28	X29	Y29	Z29	X30	Y30	Z30	X31	Y31	Z31	X32	Y32	Z32	X33	Y33	Z33	X34	Y34	Z34	X35	Y35	Z35	X36	Y36	Z36

1756	14.62500	-1148.61768	1042.93494	282.80582	-1395.24707	1016.60571	355.20609	-1328.41650	689.92078	412.70053	-1342.50696	646.98071	403.01547	-1385.79688	706.72070	409.40414	-1392.16162	661.86407	396.90842	-1389.84631	540.32281	361.12943	-1398.15942	550.34216	223.21873	-1343.26660	378.83051	345.95496	-1340.58679	331.09882	347.07306	-1404.70142	370.41016	340.89087	-1393.12219	325.84348	341.20837	-1340.79321	88.16012	317.21527	-1328.43274	88.51635	238.44937	-1259.48438	59.15226	281.28525	-1483.83508	38.69776	326.79166	-1507.02478	61.66149	259.82108	-1480.02356	49.92479	226.37692	-1141.57251	1030.76526	180.79533	-1368.93262	979.40784	95.98638	-1277.00598	650.80042	20.70322	-1293.66602	610.17731	23.98455	-1337.35278	667.05835	17.88766	-1344.00378	624.49280	20.15747	-1349.27087	475.37000	54.95890	-1377.37000	483.82294	176.92215	-1139.72864	419.91678	63.18468	-1104.91797	392.05051	64.13936	-1173.43420	367.79297	55.84595	-1133.24451	347.62582	57.09150	-977.52112	272.40771	98.30699	-1011.80450	257.04187	179.47804	-937.76825	307.69089	151.55304	-1000.73639	110.69570	185.04883	-1024.76086	85.47532	136.76396	-971.75244	122.37608	77.42179
1757	14.63333	-1157.00879	1044.08264	283.37888	-1403.74841	1017.44769	355.19824	-1333.81689	690.23981	413.18753	-1347.41785	647.31818	403.59161	-1391.13159	706.56036	410.24026	-1397.11499	661.66510	397.49536	-1394.07214	540.21283	361.83609	-1402.94849	550.35559	223.86688	-1346.14844	379.10159	346.39224	-1343.13330	331.33295	347.40570	-1407.58142	370.18521	341.40524	-1395.49158	325.70917	341.68234	-1341.05334	88.38639	317.32315	-1328.73450	88.79610	238.34657	-1259.68896	59.63216	281.26282	-1483.94666	38.60121	326.84027	-1507.24585	61.44870	259.84354	-1480.18164	49.81772	226.38913	-1150.05786	1032.02271	181.50331	-1376.91968	980.17883	95.51353	-1291.08911	651.91254	21.10256	-1308.70581	611.65143	24.33035	-1351.00647	669.55481	17.78565	-1358.55627	627.16791	20.03899	-1367.50635	478.42783	54.99881	-1395.39355	487.41684	177.21716	-1158.42725	422.11487	64.03653	-1123.37512	394.38684	64.94860	-1193.30359	369.98413	56.61855	-1152.44031	349.80344	57.55562	-997.55365	272.35165	98.86388	-1032.07874	257.47974	179.97968	-956.38202	306.25360	152.48134	-1024.81104	110.85692	184.47469	-1049.96265	86.80741	135.85774	-995.67090	122.53728	76.81199
1758	14.64167	-1165.29285	1045.28516	283.87567	-1412.12085	1018.12061	355.45587	-1339.51855	690.58868	413.43768	-1352.19238	647.56366	404.04587	-1396.50012	706.53162	411.64914	-1402.06445	661.65448	398.27975	-1397.53406	539.69208	362.21252	-1406.13977	549.92346	224.54544	-1348.95947	379.36584	346.77289	-1345.79309	331.35968	348.03836	-1410.30322	369.89261	341.88040	-1397.92163	325.58075	342.02405	-1341.61194	88.44312	317.17548	-1329.02710	89.09765	238.24324	-1259.95850	60.14927	281.23447	-1484.06226	38.45940	326.82065	-1507.47290	61.25249	259.86398	-1480.36865	49.72164	226.39203	-1158.52686	1033.30957	182.01422	-1385.82361	981.44666	95.56004	-1305.05920	653.35150	21.40068	-1323.46033	613.47028	24.53135	-1364.50476	672.23273	17.61819	-1372.97119	629.98285	19.89169	-1385.71423	481.81006	55.06227	-1414.89258	491.98788	178.04543	-1177.09924	423.55923	64.77680	-1142.49182	395.46701	65.64180	-1212.69849	371.74213	57.04140	-1171.94751	351.19516	57.75621	-1017.75494	271.29547	99.31635	-1053.73767	256.68771	179.69289	-975.66492	303.70093	153.18436	-1050.54138	110.11169	183.38634	-1075.54382	87.22701	134.77734	-1020.03943	121.76621	76.24387
1759	14.65000	-1173.46790	1046.50415	284.28818	-1420.90283	1019.52246	355.43036	-1342.53857	692.58673	414.33017	-1357.10498	647.89978	404.33453	-1401.05127	706.47449	411.89014	-1406.85095	661.47943	398.84967	-1401.67188	539.55426	362.66608	-1410.40723	549.78625	225.00250	-1351.77917	379.66229	347.02606	-1347.95618	331.98300	347.93890	-1413.10291	369.74289	342.16248	-1400.34680	325.43314	342.30539	-1341.97888	88.75482	317.24030	-1329.36987	89.41472	238.09224	-1260.31836	60.72954	281.23666	-1484.21350	38.35568	326.82825	-1507.69043	61.04549	259.88681	-1480.49438	49.58827	226.38745	-1167.01367	1034.62561	182.56920	-1393.31909	982.64087	95.25346	-1318.98547	654.98956	21.78147	-1338.11987	615.50018	24.81749	-1377.94714	675.06940	17.51460	-1387.12195	633.03235	19.71770	-1403.59937	485.23788	55.34068	-1430.85034	495.54688	178.35538	-1195.80505	424.23169	65.29355	-1161.67700	395.64474	66.01457	-1232.11926	372.84515	57.32961	-1191.60242	351.88449	57.85212	-1038.03809	269.20172	99.51785	-1075.04724	255.30107	179.75426	-994.93195	300.08353	153.94986	-1076.54382	108.93566	182.61650	-1102.24451	87.40108	133.78215	-1045.17053	120.10541	75.74974
1760	14.65833	-1181.69568	1047.60925	284.61322	-1428.22009	1020.04407	355.38095	-1347.64233	693.11169	414.38464	-1361.92310	648.24139	404.37573	-1407.10144	706.35095	412.53452	-1411.84998	661.44476	399.24088	-1406.00757	539.55634	363.01190	-1414.86230	549.76862	225.34297	-1354.60889	379.95563	347.21930	-1350.34070	332.32611	348.12997	-1415.76416	369.58359	342.44537	-1402.71680	325.32327	342.56052	-1342.13403	89.27843	317.48932	-1329.47729	89.64655	238.23010	-1260.61597	61.34885	281.19186	-1484.35901	38.23311	326.90305	-1507.96851	60.79982	259.92151	-1480.66370	49.48708	226.37617	-1175.43982	1035.92798	182.93761	-1401.21021	984.04492	95.11009	-1332.68518	656.90424	22.12218	-1352.71069	617.71667	25.10943	-1391.29504	678.08740	17.46131	-1401.21423	636.17004	19.63978	-1421.25562	488.79404	55.66782	-1447.32288	499.51694	178.74095	-1214.32812	424.13959	65.71456	-1180.69519	395.01251	66.25085	-1251.65564	373.38516	57.59741	-1211.31543	351.71921	57.90853	-1058.68481	266.18503	99.75133	-1096.45996	253.11487	179.85458	-1014.67596	295.20587	154.24110	-1103.45447	107.25362	181.91675	-1129.83105	86.93237	132.89676	-1071.14441	117.94901	75.07228
1761	14.66667	-1189.87085	1048.67505	284.84894	-1436.24487	1021.09674	355.54672	-1352.81421	693.60107	414.27829	-1366.52734	648.56317	404.27850	-1412.24170	706.12927	412.68134	-1416.60730	661.22223	399.35034	-1409.99878	539.48364	363.21503	-1419.07520	549.68420	225.53064	-1357.28857	380.27124	347.31076	-1352.87341	332.40439	348.52805	-1418.43481	369.39584	342.57739	-1404.97876	325.20172	342.59915	-1342.47815	89.60754	317.57498	-1329.83386	89.97665	238.14409	-1261.14661	61.97802	281.09976	-1484.54932	38.09156	326.95599	-1508.22607	60.54689	259.93890	-1480.85974	49.39989	226.38881	-1183.73462	1037.14880	183.27371	-1409.39697	985.69086	95.34033	-1346.32080	658.86096	22.56726	-1366.97681	620.12268	25.47452	-1404.55896	681.05829	17.48172	-1415.26843	639.34668	19.73399	-1438.53186	492.46964	56.12961	-1463.87671	503.58386	179.26736	-1232.76587	423.42493	66.03167	-1199.70251	393.66342	66.62954	-1271.28943	373.20770	57.99199	-1231.17993	351.01367	58.00257	-1079.71716	262.30765	99.85245	-1118.16858	250.25499	179.90762	-1034.40723	289.27838	154.44611	-1131.09778	105.09568	181.26656	-1158.14392	86.39722	132.11017	-1098.37146	114.93607	74.47851
1762	14.67500	-1197.98438	1049.72815	284.98981	-1444.18994	1022.14178	355.86346	-1357.90894	694.06177	414.03659	-1371.07666	648.97253	404.09250	-1417.58911	705.84100	412.71457	-1421.59277	661.16138	399.70572	-1414.44812	539.57520	363.55209	-1421.56360	548.80908	225.22894	-1360.21790	380.38095	347.70941	-1354.91431	333.04401	348.25784	-1421.40356	369.23880	342.87308	-1407.29724	325.17755	342.66620	-1342.97217	89.68863	317.41473	-1330.19592	90.31018	237.98637	-1261.20679	62.54906	281.08694	-1484.67578	37.95720	327.02362	-1508.44995	60.30145	259.96094	-1481.03601	49.30828	226.42238	-1192.16797	1038.36938	183.46759	-1417.20667	987.65558	96.18743	-1359.99158	660.84900	22.97063	-1381.28638	622.43787	25.96324	-1417.81677	683.97577	17.64135	-1429.15625	642.43311	19.98934	-1455.34644	496.09601	56.68024	-1479.87598	507.64523	179.84592	-1250.84045	422.29642	66.39468	-1218.43127	391.31848	67.30606	-1290.77588	372.65244	58.39290	-1251.03296	349.81140	58.23621	-1101.39514	257.47345	99.77406	-1140.10852	246.60832	179.97881	-1054.64270	282.20053	154.34172	-1159.51331	102.39413	180.49991	-1187.57007	85.26711	131.48544	-1126.69849	111.35171	73.75460
1763	14.68333	-1206.13940	1050.69946	284.99094	-1452.07239	1023.10785	356.31937	-1363.06177	694.51526	413.68124	-1375.81628	649.37701	403.76770	-1422.88062	705.63696	412.49200	-1426.27283	660.98761	399.57159	-1417.63586	539.10376	363.24051	-1429.01331	549.77673	225.21834	-1362.84851	380.71268	347.67947	-1357.24622	333.36627	348.19876	-1423.87341	369.06213	342.78839	-1409.43811	325.07880	342.64236	-1343.38879	90.05814	317.46045	-1330.54126	90.68879	237.83823	-1261.65552	63.36750	280.93103	-1484.83423	37.83908	327.05609	-1508.68164	60.07820	259.94604	-1481.20740	49.21539	226.38322	-1200.27881	1039.64001	183.44765	-1425.78210	989.72186	96.66847	-1373.47668	662.87329	23.33861	-1395.26709	624.78528	26.35517	-1430.90088	686.84216	17.83034	-1442.88611	645.47260	20.28646	-1471.46704	499.71689	57.28930	-1495.53979	511.78571	180.48166	-1268.64319	420.78049	66.71565	-1237.10266	388.91922	67.66295	-1310.11902	371.91376	58.86773	-1270.66638	348.30481	58.51447	-1123.72083	251.63147	99.51365	-1162.68445	242.12732	179.81859	-1075.32056	273.98221	154.11668	-1188.66382	99.04393	179.71150	-1217.72546	83.83904	130.82065	-1155.99036	107.16912	72.91257
1764	14.69167	-1214.09985	1051.60889	284.84290	-1459.73096	1024.10999	356.86264	-1368.70532	694.72168	412.94769	-1380.40552	649.74512	403.43005	-1428.07825	705.52448	412.28091	-1430.92517	660.87347	399.30728	-1421.52734	539.01648	363.12518	-1432.99512	549.56561	225.08531	-1365.44043	381.01895	347.55890	-1359.65637	333.44482	348.36908	-1426.23792	368.90714	342.68155	-1411.67114	325.01056	342.54947	-1343.78650	90.44261	317.50919	-1330.89905	91.08312	237.67595	-1261.93640	64.01576	280.91818	-1484.99109	37.74764	327.08624	-1508.84741	59.90459	259.91370	-1481.34912	49.18019	226.35130	-1208.50659	1040.82568	183.31470	-1434.32971	992.04407	97.33136	-1386.73401	664.93671	23.59451	-1409.09814	627.17834	26.73820	-1443.78223	689.68530	18.14131	-1456.42627	648.50848	20.70579	-1487.02771	503.31723	57.99043	-1510.60388	515.79199	181.02943	-1286.38562	418.90753	67.11933	-1255.77905	386.20667	68.00095	-1325.63391	373.94009	56.19898	-1290.64221	346.50534	58.81111	-1146.46106	244.96909	99.15009	-1185.39575	236.93636	179.73563	-1096.59143	264.66437	153.63596	-1218.71228	95.41560	178.83052	-1248.57947	82.12756	130.00713	-1186.08911	102.61124	71.99681
1765	14.70000	-1222.03503	1052.40393	284.53275	-1467.28064	1025.08008	357.51053	-1373.54602	695.20935	412.49817	-1384.76880	650.08221	403.06131	-1433.07336	705.42004	412.07178	-1435.57446	660.70557	399.01489	-1425.03943	538.88654	362.90125	-1436.85730	549.30432	224.88777	-1367.93579	381.38507	347.41101	-1361.64990	334.06409	347.96329	-1428.70789	368.72748	342.24149	-1413.86011	324.99655	342.33823	-1344.55359	91.64385	318.52338	-1331.40845	91.44644	237.42377	-1262.19312	64.70454	280.86111	-1485.13843	37.72867	327.13214	-1509.42383	59.72353	259.32587	-1481.51172	49.15419	226.27513	-1216.60779	1041.92322	183.01392	-1443.00220	994.39581	98.13927	-1399.63928	667.12354	23.76114	-1422.57324	629.59845	26.99518	-1456.42883	692.49597	18.50461	-1469.66040	651.51617	21.13001	-1501.85022	506.87866	58.65995	-1525.59302	519.91595	181.75439	-1303.78040	416.74313	67.52292	-1274.25098	382.95441	68.28527	-1345.28235	372.63510	57.67907	-1310.63135	344.24545	59.40251	-1169.68604	237.51797	98.74190	-1208.64319	230.94237	179.41475	-1118.37671	254.45792	153.26262	-1248.52820	91.89290	178.28439	-1279.85046	80.05911	129.23671	-1216.73730	97.69617	71.02090
